<svg width="23" height="33" viewBox="0 0 23 33" fill="none" xmlns="http://www.w3.org/2000/svg">
<path d="M7.24998 30.6667H15.75M7.24998 2.33337H15.75M1.58331 9.41671C1.58331 8.66526 1.88182 7.94459 2.41318 7.41324C2.94453 6.88189 3.6652 6.58337 4.41665 6.58337H18.5833C19.3348 6.58337 20.0554 6.88189 20.5868 7.41324C21.1181 7.94459 21.4166 8.66526 21.4166 9.41671V23.5834C21.4166 24.3348 21.1181 25.0555 20.5868 25.5868C20.0554 26.1182 19.3348 26.4167 18.5833 26.4167H4.41665C3.6652 26.4167 2.94453 26.1182 2.41318 25.5868C1.88182 25.0555 1.58331 24.3348 1.58331 23.5834V9.41671Z" stroke="black" stroke-width="3" stroke-linecap="round" stroke-linejoin="round"/>
</svg>
